<?xml version="1.0" encoding="us-ascii" standalone="no"?><svg xmlns="http://www.w3.org/2000/svg" xmlns:xlink="http://www.w3.org/1999/xlink" contentStyleType="text/css" height="790px" preserveAspectRatio="none" style="width:2480px;height:790px;background:#FFFFFF;" version="1.1" viewBox="0 0 2480 790" width="2480px" zoomAndPan="magnify"><defs/><g><rect fill="#FFFFFF" height="596.2578" style="stroke:#181818;stroke-width:1.0;" width="10" x="133" y="75.4297"/><rect fill="#FFFFFF" height="690.6563" style="stroke:#181818;stroke-width:1.0;" width="10" x="364.5" y="46.2969"/><rect fill="#FFFFFF" height="129.3984" style="stroke:#181818;stroke-width:1.0;" width="10" x="610.5" y="528.2891"/><rect fill="#FFFFFF" height="14" style="stroke:#181818;stroke-width:1.0;" width="10" x="898.5" y="557.4219"/><rect fill="#FFFFFF" height="57.1328" style="stroke:#181818;stroke-width:1.0;" width="10" x="1129.5" y="600.5547"/><rect fill="#FFFFFF" height="14" style="stroke:#181818;stroke-width:1.0;" width="10" x="1303.5" y="629.6875"/><rect fill="#FFFFFF" height="334.3281" style="stroke:#181818;stroke-width:1.0;" width="10" x="1455.5" y="133.6953"/><rect fill="#FFFFFF" height="106.3984" style="stroke:#181818;stroke-width:1.0;" width="10" x="1460.5" y="311.4922"/><rect fill="#FFFFFF" height="40.1328" style="stroke:#181818;stroke-width:1.0;" width="10" x="1465.5" y="377.7578"/><rect fill="#FFFFFF" height="29.1328" style="stroke:#181818;stroke-width:1.0;" width="10" x="1912.5" y="707.8203"/><rect fill="#FFFFFF" height="87.3984" style="stroke:#181818;stroke-width:1.0;" width="10" x="2069.5" y="162.8281"/><rect fill="#FFFFFF" height="29.1328" style="stroke:#181818;stroke-width:1.0;" width="10" x="2371.5" y="191.9609"/><rect fill="none" height="380.5938" style="stroke:#000000;stroke-width:1.5;" width="2464" x="10" y="95.4297"/><rect fill="none" height="174.6641" style="stroke:#000000;stroke-width:1.5;" width="535.5" x="1387" y="265.2266"/><rect fill="none" height="101.3984" style="stroke:#000000;stroke-width:1.5;" width="463.5" x="1397" y="331.4922"/><rect fill="none" height="189.6641" style="stroke:#000000;stroke-width:1.5;" width="1397" x="10" y="490.0234"/><line style="stroke:#181818;stroke-width:0.5;stroke-dasharray:5.0,5.0;" x1="138" x2="138" y1="36.2969" y2="754.9531"/><line style="stroke:#181818;stroke-width:0.5;stroke-dasharray:5.0,5.0;" x1="369" x2="369" y1="36.2969" y2="754.9531"/><line style="stroke:#181818;stroke-width:0.5;stroke-dasharray:5.0,5.0;" x1="615" x2="615" y1="36.2969" y2="754.9531"/><line style="stroke:#181818;stroke-width:0.5;stroke-dasharray:5.0,5.0;" x1="903" x2="903" y1="36.2969" y2="754.9531"/><line style="stroke:#181818;stroke-width:0.5;stroke-dasharray:5.0,5.0;" x1="1134" x2="1134" y1="36.2969" y2="754.9531"/><line style="stroke:#181818;stroke-width:0.5;stroke-dasharray:5.0,5.0;" x1="1308" x2="1308" y1="36.2969" y2="754.9531"/><line style="stroke:#181818;stroke-width:0.5;stroke-dasharray:5.0,5.0;" x1="1460" x2="1460" y1="36.2969" y2="754.9531"/><line style="stroke:#181818;stroke-width:0.5;stroke-dasharray:5.0,5.0;" x1="1917" x2="1917" y1="36.2969" y2="754.9531"/><line style="stroke:#181818;stroke-width:0.5;stroke-dasharray:5.0,5.0;" x1="2074" x2="2074" y1="36.2969" y2="754.9531"/><line style="stroke:#181818;stroke-width:0.5;stroke-dasharray:5.0,5.0;" x1="2376" x2="2376" y1="36.2969" y2="754.9531"/><rect fill="#E2E2F0" height="30.2969" rx="2.5" ry="2.5" style="stroke:#181818;stroke-width:0.5;" width="236" x="20" y="5"/><text fill="#000000" font-family="sans-serif" font-size="14" lengthAdjust="spacing" textLength="222" x="27" y="24.9951">scheduleRenovationViewModel</text><rect fill="#E2E2F0" height="30.2969" rx="2.5" ry="2.5" style="stroke:#181818;stroke-width:0.5;" width="236" x="20" y="753.9531"/><text fill="#000000" font-family="sans-serif" font-size="14" lengthAdjust="spacing" textLength="222" x="27" y="773.9482">scheduleRenovationViewModel</text><rect fill="#E2E2F0" height="30.2969" rx="2.5" ry="2.5" style="stroke:#181818;stroke-width:0.5;" width="207" x="266" y="5"/><text fill="#000000" font-family="sans-serif" font-size="14" lengthAdjust="spacing" textLength="193" x="273" y="24.9951">accommodationViewModel</text><rect fill="#E2E2F0" height="30.2969" rx="2.5" ry="2.5" style="stroke:#181818;stroke-width:0.5;" width="207" x="266" y="753.9531"/><text fill="#000000" font-family="sans-serif" font-size="14" lengthAdjust="spacing" textLength="193" x="273" y="773.9482">accommodationViewModel</text><rect fill="#E2E2F0" height="30.2969" rx="2.5" ry="2.5" style="stroke:#181818;stroke-width:0.5;" width="265" x="483" y="5"/><text fill="#000000" font-family="sans-serif" font-size="14" lengthAdjust="spacing" textLength="251" x="490" y="24.9951">accommodationRenovationService</text><rect fill="#E2E2F0" height="30.2969" rx="2.5" ry="2.5" style="stroke:#181818;stroke-width:0.5;" width="265" x="483" y="753.9531"/><text fill="#000000" font-family="sans-serif" font-size="14" lengthAdjust="spacing" textLength="251" x="490" y="773.9482">accommodationRenovationService</text><rect fill="#E2E2F0" height="30.2969" rx="2.5" ry="2.5" style="stroke:#181818;stroke-width:0.5;" width="291" x="758" y="5"/><text fill="#000000" font-family="sans-serif" font-size="14" lengthAdjust="spacing" textLength="277" x="765" y="24.9951">accommodationRenovationRepository</text><rect fill="#E2E2F0" height="30.2969" rx="2.5" ry="2.5" style="stroke:#181818;stroke-width:0.5;" width="291" x="758" y="753.9531"/><text fill="#000000" font-family="sans-serif" font-size="14" lengthAdjust="spacing" textLength="277" x="765" y="773.9482">accommodationRenovationRepository</text><rect fill="#E2E2F0" height="30.2969" rx="2.5" ry="2.5" style="stroke:#181818;stroke-width:0.5;" width="151" x="1059" y="5"/><text fill="#000000" font-family="sans-serif" font-size="14" lengthAdjust="spacing" textLength="137" x="1066" y="24.9951">notificationService</text><rect fill="#E2E2F0" height="30.2969" rx="2.5" ry="2.5" style="stroke:#181818;stroke-width:0.5;" width="151" x="1059" y="753.9531"/><text fill="#000000" font-family="sans-serif" font-size="14" lengthAdjust="spacing" textLength="137" x="1066" y="773.9482">notificationService</text><rect fill="#E2E2F0" height="30.2969" rx="2.5" ry="2.5" style="stroke:#181818;stroke-width:0.5;" width="177" x="1220" y="5"/><text fill="#000000" font-family="sans-serif" font-size="14" lengthAdjust="spacing" textLength="163" x="1227" y="24.9951">notificationRepository</text><rect fill="#E2E2F0" height="30.2969" rx="2.5" ry="2.5" style="stroke:#181818;stroke-width:0.5;" width="177" x="1220" y="753.9531"/><text fill="#000000" font-family="sans-serif" font-size="14" lengthAdjust="spacing" textLength="163" x="1227" y="773.9482">notificationRepository</text><rect fill="#E2E2F0" height="30.2969" rx="2.5" ry="2.5" style="stroke:#181818;stroke-width:0.5;" width="107" x="1407" y="5"/><text fill="#000000" font-family="sans-serif" font-size="14" lengthAdjust="spacing" textLength="93" x="1414" y="24.9951">datesService</text><rect fill="#E2E2F0" height="30.2969" rx="2.5" ry="2.5" style="stroke:#181818;stroke-width:0.5;" width="107" x="1407" y="753.9531"/><text fill="#000000" font-family="sans-serif" font-size="14" lengthAdjust="spacing" textLength="93" x="1414" y="773.9482">datesService</text><rect fill="#E2E2F0" height="30.2969" rx="2.5" ry="2.5" style="stroke:#181818;stroke-width:0.5;" width="145" x="1845" y="5"/><text fill="#000000" font-family="sans-serif" font-size="14" lengthAdjust="spacing" textLength="131" x="1852" y="24.9951">renovationService</text><rect fill="#E2E2F0" height="30.2969" rx="2.5" ry="2.5" style="stroke:#181818;stroke-width:0.5;" width="145" x="1845" y="753.9531"/><text fill="#000000" font-family="sans-serif" font-size="14" lengthAdjust="spacing" textLength="131" x="1852" y="773.9482">renovationService</text><rect fill="#E2E2F0" height="30.2969" rx="2.5" ry="2.5" style="stroke:#181818;stroke-width:0.5;" width="149" x="2000" y="5"/><text fill="#000000" font-family="sans-serif" font-size="14" lengthAdjust="spacing" textLength="135" x="2007" y="24.9951">reservationService</text><rect fill="#E2E2F0" height="30.2969" rx="2.5" ry="2.5" style="stroke:#181818;stroke-width:0.5;" width="149" x="2000" y="753.9531"/><text fill="#000000" font-family="sans-serif" font-size="14" lengthAdjust="spacing" textLength="135" x="2007" y="773.9482">reservationService</text><rect fill="#E2E2F0" height="30.2969" rx="2.5" ry="2.5" style="stroke:#181818;stroke-width:0.5;" width="175" x="2289" y="5"/><text fill="#000000" font-family="sans-serif" font-size="14" lengthAdjust="spacing" textLength="161" x="2296" y="24.9951">reservationRepository</text><rect fill="#E2E2F0" height="30.2969" rx="2.5" ry="2.5" style="stroke:#181818;stroke-width:0.5;" width="175" x="2289" y="753.9531"/><text fill="#000000" font-family="sans-serif" font-size="14" lengthAdjust="spacing" textLength="161" x="2296" y="773.9482">reservationRepository</text><rect fill="#FFFFFF" height="596.2578" style="stroke:#181818;stroke-width:1.0;" width="10" x="133" y="75.4297"/><rect fill="#FFFFFF" height="690.6563" style="stroke:#181818;stroke-width:1.0;" width="10" x="364.5" y="46.2969"/><rect fill="#FFFFFF" height="129.3984" style="stroke:#181818;stroke-width:1.0;" width="10" x="610.5" y="528.2891"/><rect fill="#FFFFFF" height="14" style="stroke:#181818;stroke-width:1.0;" width="10" x="898.5" y="557.4219"/><rect fill="#FFFFFF" height="57.1328" style="stroke:#181818;stroke-width:1.0;" width="10" x="1129.5" y="600.5547"/><rect fill="#FFFFFF" height="14" style="stroke:#181818;stroke-width:1.0;" width="10" x="1303.5" y="629.6875"/><rect fill="#FFFFFF" height="334.3281" style="stroke:#181818;stroke-width:1.0;" width="10" x="1455.5" y="133.6953"/><rect fill="#FFFFFF" height="106.3984" style="stroke:#181818;stroke-width:1.0;" width="10" x="1460.5" y="311.4922"/><rect fill="#FFFFFF" height="40.1328" style="stroke:#181818;stroke-width:1.0;" width="10" x="1465.5" y="377.7578"/><rect fill="#FFFFFF" height="29.1328" style="stroke:#181818;stroke-width:1.0;" width="10" x="1912.5" y="707.8203"/><rect fill="#FFFFFF" height="87.3984" style="stroke:#181818;stroke-width:1.0;" width="10" x="2069.5" y="162.8281"/><rect fill="#FFFFFF" height="29.1328" style="stroke:#181818;stroke-width:1.0;" width="10" x="2371.5" y="191.9609"/><line style="stroke:#181818;stroke-width:1.0;" x1="138" x2="185" y1="62.4297" y2="62.4297"/><line style="stroke:#181818;stroke-width:1.0;" x1="185" x2="185" y1="62.4297" y2="75.4297"/><line style="stroke:#181818;stroke-width:1.0;" x1="144" x2="185" y1="75.4297" y2="75.4297"/><polygon fill="#181818" points="154,71.4297,144,75.4297,154,79.4297,150,75.4297" style="stroke:#181818;stroke-width:1.0;"/><text fill="#000000" font-family="sans-serif" font-size="13" lengthAdjust="spacing" textLength="159" x="150" y="57.3638">MakeDatesSuggestions()</text><path d="M10,95.4297 L82,95.4297 L82,102.5625 L72,112.5625 L10,112.5625 L10,95.4297 " fill="#EEEEEE" style="stroke:#000000;stroke-width:1.5;"/><rect fill="none" height="380.5938" style="stroke:#000000;stroke-width:1.5;" width="2464" x="10" y="95.4297"/><text fill="#000000" font-family="sans-serif" font-size="13" font-weight="bold" lengthAdjust="spacing" textLength="27" x="25" y="108.4966">opt</text><text fill="#000000" font-family="sans-serif" font-size="11" font-weight="bold" lengthAdjust="spacing" textLength="706" x="97" y="107.6401">[SelectedAccommodation != null &amp;&amp; StartDate&gt;DateTime.Now &amp;&amp; EndDate&gt;=StartDate &amp;&amp; Duration!=0]</text><polygon fill="#181818" points="1443.5,129.6953,1453.5,133.6953,1443.5,137.6953,1447.5,133.6953" style="stroke:#181818;stroke-width:1.0;"/><line style="stroke:#181818;stroke-width:1.0;" x1="143" x2="1449.5" y1="133.6953" y2="133.6953"/><text fill="#000000" font-family="sans-serif" font-size="13" lengthAdjust="spacing" textLength="526" x="150" y="128.6294">GetAvailableDateRanges(StartDate, EndDate, Duration, SelectedAccommodation)</text><polygon fill="#181818" points="2057.5,158.8281,2067.5,162.8281,2057.5,166.8281,2061.5,162.8281" style="stroke:#181818;stroke-width:1.0;"/><line style="stroke:#181818;stroke-width:1.0;" x1="1465.5" x2="2063.5" y1="162.8281" y2="162.8281"/><text fill="#000000" font-family="sans-serif" font-size="13" lengthAdjust="spacing" textLength="342" x="1472.5" y="157.7622">GetReservationsByAccommodation(accommodation)</text><polygon fill="#181818" points="2359.5,187.9609,2369.5,191.9609,2359.5,195.9609,2363.5,191.9609" style="stroke:#181818;stroke-width:1.0;"/><line style="stroke:#181818;stroke-width:1.0;" x1="2079.5" x2="2365.5" y1="191.9609" y2="191.9609"/><text fill="#000000" font-family="sans-serif" font-size="13" lengthAdjust="spacing" textLength="273" x="2086.5" y="186.895">GetAllByAccommodation(accommodation)</text><polygon fill="#181818" points="2090.5,217.0938,2080.5,221.0938,2090.5,225.0938,2086.5,221.0938" style="stroke:#181818;stroke-width:1.0;"/><line style="stroke:#181818;stroke-width:1.0;stroke-dasharray:2.0,2.0;" x1="2084.5" x2="2375.5" y1="221.0938" y2="221.0938"/><text fill="#000000" font-family="sans-serif" font-size="13" lengthAdjust="spacing" textLength="201" x="2096.5" y="216.0278">reservationsByAccommodation</text><polygon fill="#181818" points="1476.5,246.2266,1466.5,250.2266,1476.5,254.2266,1472.5,250.2266" style="stroke:#181818;stroke-width:1.0;"/><line style="stroke:#181818;stroke-width:1.0;stroke-dasharray:2.0,2.0;" x1="1470.5" x2="2073.5" y1="250.2266" y2="250.2266"/><text fill="#000000" font-family="sans-serif" font-size="13" lengthAdjust="spacing" textLength="201" x="1482.5" y="245.1606">reservationsByAccommodation</text><path d="M1387,265.2266 L1465,265.2266 L1465,272.3594 L1455,282.3594 L1387,282.3594 L1387,265.2266 " fill="#EEEEEE" style="stroke:#000000;stroke-width:1.5;"/><rect fill="none" height="174.6641" style="stroke:#000000;stroke-width:1.5;" width="535.5" x="1387" y="265.2266"/><text fill="#000000" font-family="sans-serif" font-size="13" font-weight="bold" lengthAdjust="spacing" textLength="33" x="1402" y="278.2935">loop</text><text fill="#000000" font-family="sans-serif" font-size="11" font-weight="bold" lengthAdjust="spacing" textLength="318" x="1480" y="277.437">[reservation in reservationsByAccommodation]</text><line style="stroke:#181818;stroke-width:1.0;" x1="1465.5" x2="1512.5" y1="298.4922" y2="298.4922"/><line style="stroke:#181818;stroke-width:1.0;" x1="1512.5" x2="1512.5" y1="298.4922" y2="311.4922"/><line style="stroke:#181818;stroke-width:1.0;" x1="1471.5" x2="1512.5" y1="311.4922" y2="311.4922"/><polygon fill="#181818" points="1481.5,307.4922,1471.5,311.4922,1481.5,315.4922,1477.5,311.4922" style="stroke:#181818;stroke-width:1.0;"/><text fill="#000000" font-family="sans-serif" font-size="13" lengthAdjust="spacing" textLength="433" x="1477.5" y="293.4263">FindDateRanges(startDate, endDate, duration, ranges, reservation)</text><path d="M1397,331.4922 L1475,331.4922 L1475,338.625 L1465,348.625 L1397,348.625 L1397,331.4922 " fill="#EEEEEE" style="stroke:#000000;stroke-width:1.5;"/><rect fill="none" height="101.3984" style="stroke:#000000;stroke-width:1.5;" width="463.5" x="1397" y="331.4922"/><text fill="#000000" font-family="sans-serif" font-size="13" font-weight="bold" lengthAdjust="spacing" textLength="33" x="1412" y="344.5591">loop</text><text fill="#000000" font-family="sans-serif" font-size="11" font-weight="bold" lengthAdjust="spacing" textLength="110" x="1490" y="343.7026">[date&lt; endDate]</text><line style="stroke:#181818;stroke-width:1.0;" x1="1470.5" x2="1517.5" y1="364.7578" y2="364.7578"/><line style="stroke:#181818;stroke-width:1.0;" x1="1517.5" x2="1517.5" y1="364.7578" y2="377.7578"/><line style="stroke:#181818;stroke-width:1.0;" x1="1476.5" x2="1517.5" y1="377.7578" y2="377.7578"/><polygon fill="#181818" points="1486.5,373.7578,1476.5,377.7578,1486.5,381.7578,1482.5,377.7578" style="stroke:#181818;stroke-width:1.0;"/><text fill="#000000" font-family="sans-serif" font-size="13" lengthAdjust="spacing" textLength="366" x="1482.5" y="359.6919">IsAvailableInDateRange(reservation, startDate, endDate)</text><line style="stroke:#181818;stroke-width:1.0;stroke-dasharray:2.0,2.0;" x1="1475.5" x2="1517.5" y1="416.8906" y2="416.8906"/><line style="stroke:#181818;stroke-width:1.0;stroke-dasharray:2.0,2.0;" x1="1517.5" x2="1517.5" y1="416.8906" y2="429.8906"/><line style="stroke:#181818;stroke-width:1.0;stroke-dasharray:2.0,2.0;" x1="1470.5" x2="1517.5" y1="429.8906" y2="429.8906"/><polygon fill="#181818" points="1480.5,425.8906,1470.5,429.8906,1480.5,433.8906,1476.5,429.8906" style="stroke:#181818;stroke-width:1.0;"/><text fill="#000000" font-family="sans-serif" font-size="13" lengthAdjust="spacing" textLength="151" x="1482.5" y="411.8247">isAvailableInDateRange</text><polygon fill="#181818" points="154,464.0234,144,468.0234,154,472.0234,150,468.0234" style="stroke:#181818;stroke-width:1.0;"/><line style="stroke:#181818;stroke-width:1.0;stroke-dasharray:2.0,2.0;" x1="148" x2="1459.5" y1="468.0234" y2="468.0234"/><text fill="#000000" font-family="sans-serif" font-size="13" lengthAdjust="spacing" textLength="44" x="160" y="462.9575">ranges</text><path d="M10,490.0234 L82,490.0234 L82,497.1563 L72,507.1563 L10,507.1563 L10,490.0234 " fill="#EEEEEE" style="stroke:#000000;stroke-width:1.5;"/><rect fill="none" height="189.6641" style="stroke:#000000;stroke-width:1.5;" width="1397" x="10" y="490.0234"/><text fill="#000000" font-family="sans-serif" font-size="13" font-weight="bold" lengthAdjust="spacing" textLength="27" x="25" y="503.0903">opt</text><text fill="#000000" font-family="sans-serif" font-size="11" font-weight="bold" lengthAdjust="spacing" textLength="147" x="97" y="502.2339">[SelectedDate != null]</text><polygon fill="#181818" points="598.5,524.2891,608.5,528.2891,598.5,532.2891,602.5,528.2891" style="stroke:#181818;stroke-width:1.0;"/><line style="stroke:#181818;stroke-width:1.0;" x1="143" x2="604.5" y1="528.2891" y2="528.2891"/><text fill="#000000" font-family="sans-serif" font-size="13" lengthAdjust="spacing" textLength="104" x="150" y="523.2231">Add(renovation)</text><polygon fill="#181818" points="886.5,553.4219,896.5,557.4219,886.5,561.4219,890.5,557.4219" style="stroke:#181818;stroke-width:1.0;"/><line style="stroke:#181818;stroke-width:1.0;" x1="620.5" x2="892.5" y1="557.4219" y2="557.4219"/><text fill="#000000" font-family="sans-serif" font-size="13" lengthAdjust="spacing" textLength="104" x="627.5" y="552.356">Add(renovation)</text><polygon fill="#181818" points="631.5,567.4219,621.5,571.4219,631.5,575.4219,627.5,571.4219" style="stroke:#181818;stroke-width:1.0;"/><line style="stroke:#181818;stroke-width:1.0;stroke-dasharray:2.0,2.0;" x1="625.5" x2="902.5" y1="571.4219" y2="571.4219"/><polygon fill="#181818" points="1117.5,596.5547,1127.5,600.5547,1117.5,604.5547,1121.5,600.5547" style="stroke:#181818;stroke-width:1.0;"/><line style="stroke:#181818;stroke-width:1.0;" x1="620.5" x2="1123.5" y1="600.5547" y2="600.5547"/><text fill="#000000" font-family="sans-serif" font-size="13" lengthAdjust="spacing" textLength="112" x="627.5" y="595.4888">Add(type, owner)</text><polygon fill="#181818" points="1291.5,625.6875,1301.5,629.6875,1291.5,633.6875,1295.5,629.6875" style="stroke:#181818;stroke-width:1.0;"/><line style="stroke:#181818;stroke-width:1.0;" x1="1139.5" x2="1297.5" y1="629.6875" y2="629.6875"/><text fill="#000000" font-family="sans-serif" font-size="13" lengthAdjust="spacing" textLength="112" x="1146.5" y="624.6216">Add(type, owner)</text><polygon fill="#181818" points="1150.5,639.6875,1140.5,643.6875,1150.5,647.6875,1146.5,643.6875" style="stroke:#181818;stroke-width:1.0;"/><line style="stroke:#181818;stroke-width:1.0;stroke-dasharray:2.0,2.0;" x1="1144.5" x2="1307.5" y1="643.6875" y2="643.6875"/><polygon fill="#181818" points="626.5,653.6875,616.5,657.6875,626.5,661.6875,622.5,657.6875" style="stroke:#181818;stroke-width:1.0;"/><line style="stroke:#181818;stroke-width:1.0;stroke-dasharray:2.0,2.0;" x1="620.5" x2="1133.5" y1="657.6875" y2="657.6875"/><polygon fill="#181818" points="149,667.6875,139,671.6875,149,675.6875,145,671.6875" style="stroke:#181818;stroke-width:1.0;"/><line style="stroke:#181818;stroke-width:1.0;stroke-dasharray:2.0,2.0;" x1="143" x2="614.5" y1="671.6875" y2="671.6875"/><polygon fill="#181818" points="1900.5,703.8203,1910.5,707.8203,1900.5,711.8203,1904.5,707.8203" style="stroke:#181818;stroke-width:1.0;"/><line style="stroke:#181818;stroke-width:1.0;" x1="374.5" x2="1906.5" y1="707.8203" y2="707.8203"/><text fill="#000000" font-family="sans-serif" font-size="13" lengthAdjust="spacing" textLength="213" x="381.5" y="702.7544">AreRenovated(accommodations)</text><polygon fill="#181818" points="380.5,732.9531,370.5,736.9531,380.5,740.9531,376.5,736.9531" style="stroke:#181818;stroke-width:1.0;"/><line style="stroke:#181818;stroke-width:1.0;stroke-dasharray:2.0,2.0;" x1="374.5" x2="1916.5" y1="736.9531" y2="736.9531"/><text fill="#000000" font-family="sans-serif" font-size="13" lengthAdjust="spacing" textLength="111" x="386.5" y="731.8872">accommodations</text><!--SRC=[bPLDZziW48Rl_0fs3ojRQrSzhvf8hj9MUuWFKELE3TsY4h0CIPH_NpwCZR-sxIMAcNcVUPank2MTuGrlYJJmKJU_6Bq8XfXKLsAuaYVERaT5cNY4H4ECJaVGfWhIDEfyLdGbkNetToo1MNVb3GiQXFz9WrYhD3Ugk_SoD9L9PVXFtYpuDTxEcp7h6T9QO3fb7MQiRdL7Q96bRNIHjbpUbCryhaO006vMiDpxcS7dvnTu9B_PmM_YylR6j1FeB0UgDH0pmHh3Q9Ls6pxieBm80P-U83RMZ1FltSztVcOVQdLpaI-I-lNTaE9M3vVECnvs7m64qSe1UoFVcAckX0loGtX3Y4Zh9ni0HOGM0wTOjvXRk8LQzB9_iHGQ8_hpVIBFo1osWfd2nnOFMn7YVx09e2ptQ_NAbsxRyeR7qDo_IeLIxGG0kOJlI_h-zgFxoiDa-f7fSMGiZemE8-jyKf4MoAC9Tve-HP4hCwdpgeSNv5KEzR84LC1bxTnpGYDYFo1VHVbCoaXZ-DMzilOiGuS911Z-0z2ZmljhOM57O2fqgUaXycUWFpl3ARGNcszWHMasNXGv02xWusWrxjRBNb-M82tjBhqehqUwkRUs9UecMPU3EaJHHZImQu-kyLOXUnFE7jCdFFM4WwMnQsdOVpzyQqU5NQb2ZsABklZzONHwb7GEUdRL3sGQdZWv7Vy0]--></g></svg>